<?xml version="1.0" encoding="utf-8"?>
<!-- Generator: Adobe Illustrator 26.0.2, SVG Export Plug-In . SVG Version: 6.00 Build 0)  -->
<svg version="1.1" id="Layer_1" xmlns="http://www.w3.org/2000/svg" xmlns:xlink="http://www.w3.org/1999/xlink" x="0px" y="0px"
	 viewBox="0 0 992.13 992.13" style="enable-background:new 0 0 992.13 992.13;" xml:space="preserve">
<style type="text/css">
	.st0{display:none;fill-rule:evenodd;clip-rule:evenodd;fill:#333333;}
	.st1{fill-rule:evenodd;clip-rule:evenodd;fill:#2F1F5D;}
	.st2{display:none;}
	.st3{display:inline;fill-rule:evenodd;clip-rule:evenodd;fill:#887EE3;}
	.st4{display:inline;fill-rule:evenodd;clip-rule:evenodd;fill:#C8C7FF;}
</style>
<circle class="st0" cx="496.06" cy="496.06" r="496.06"/>
<g id="Layer_2">
	<g id="Cape_00000080172140315930400780000004387470766684108479_">
		<path class="st1" d="M224.4,497.91c-88.75,258.27,45.9,508.95,101.7,355.18c67.97-187.32,106.65-153.78,249.39-88.06
			c74.06,34.1,153.51,33.45,180.88-66.45c20.61-75.23-75.02-197.94,2.48-553.02c20.9-95.78-157.57-63.77-292.06,35.15
			C347.4,268.52,265.42,378.54,224.4,497.91z"/>
	</g>
	<g id="Cape_00000013887984059620390880000017265176874275945124_" class="st2">
		<path class="st3" d="M224.4,497.91c-88.75,258.27,45.9,508.95,101.7,355.18c67.97-187.32,106.65-153.78,249.39-88.06
			c74.06,34.1,153.51,33.45,180.88-66.45c20.61-75.23-75.02-197.94,2.48-553.02c20.9-95.78-157.57-63.77-292.06,35.15
			C347.4,268.52,265.42,378.54,224.4,497.91z"/>
	</g>
	<g id="Cape_00000050653759007598761560000006111662369944403123_" class="st2">
		<path class="st4" d="M224.4,497.91c-88.75,258.27,45.9,508.95,101.7,355.18c67.97-187.32,106.65-153.78,249.39-88.06
			c74.06,34.1,153.51,33.45,180.88-66.45c20.61-75.23-75.02-197.94,2.48-553.02c20.9-95.78-157.57-63.77-292.06,35.15
			C347.4,268.52,265.42,378.54,224.4,497.91z"/>
	</g>
</g>
</svg>
