<?xml version="1.0" encoding="utf-8"?>
<!-- Generator: Adobe Illustrator 26.0.2, SVG Export Plug-In . SVG Version: 6.00 Build 0)  -->
<svg version="1.1" id="Layer_1" xmlns="http://www.w3.org/2000/svg" xmlns:xlink="http://www.w3.org/1999/xlink" x="0px" y="0px"
	 viewBox="0 0 1091.34 510.24" style="enable-background:new 0 0 1091.34 510.24;" xml:space="preserve">
<style type="text/css">
	.st0{fill-rule:evenodd;clip-rule:evenodd;fill:#F8F8F8;}
	.st1{fill:#F8F8F8;}
	.st2{display:none;}
	.st3{display:inline;}
	.st4{fill-rule:evenodd;clip-rule:evenodd;fill:#887EE3;}
	.st5{fill:#887EE3;}
	.st6{display:inline;fill:#887EE3;}
	.st7{fill-rule:evenodd;clip-rule:evenodd;fill:#C8C7FF;}
	.st8{fill:#C8C7FF;}
	.st9{display:inline;fill:#C8C7FF;}
</style>
<g id="Layer_2">
	<g id="Cape_00000008866652002712689960000010903603846889846656_">
		<path class="st0" d="M25.71,270.81c-49.62,144.34,25.66,284.44,56.86,198.5c38-104.69,59.63-85.94,139.43-49.22
			c41.41,19.06,85.83,18.7,101.13-37.14c11.52-42.05-41.94-110.62,1.39-309.07c11.69-53.53-88.1-35.64-163.29,19.64
			C94.48,142.61,48.65,204.1,25.71,270.81z"/>
	</g>
	<g>
		<path class="st1" d="M458.02,108.49c-0.02-0.05-0.03-0.08-0.03-0.12c-3.25-13.98-13.02-20.13-25.97-22.84
			c12.61-5.47,20.53-16.92,20.53-33.63c0-0.44,0-0.87-0.03-1.31c0.02-0.14,0.02-0.26,0.02-0.39c0-12.21-4.51-20.42-11.24-25.85
			c-0.14-0.12-0.27-0.24-0.43-0.35c-9.55-7.81-22.72-9.12-30.67-9.3c-1.39-0.06-2.75-0.09-4.09-0.09h-33.52
			c-6.74,0-10.72,3.71-10.72,7.93v125.28c0,1.95,0.87,3.75,2.38,5.19c0.21,0.21,0.44,0.41,0.69,0.59c0.24,0.18,0.5,0.36,0.78,0.54
			c0.55,0.33,1.17,0.63,1.85,0.9c0.34,0.14,0.7,0.24,1.07,0.35c1.43,0.38,3.08,0.59,4.96,0.59l40.34-0.02
			c2.24,0,4.45-0.12,6.62-0.38c0.46-0.05,0.9-0.11,1.34-0.18c3.58-0.53,7.43-1.42,11.21-2.77c0.37-0.12,0.73-0.26,1.1-0.41
			c10.57-4.16,18.85-11.55,22.65-20.96c1.31-3.47,2.14-7.37,2.3-11.79v-0.23C459.11,115.22,458.73,111.66,458.02,108.49z
			 M381.69,30.19c0-0.02,0.2-0.02,0.2-0.03c0.24-5.04,2.96-7.36,7.06-7.36h12.09c29.63-0.32,35.78,15.02,36.3,28.6v0.17
			c-0.55,20.12-15.53,31.15-33.22,31.83c-0.67,0.02-1.33,0.03-1.97,0.03h-17.26c-1.69,0.09-3.13-0.67-3.2-3.25V30.19z
			 M443.07,119.23v0.2c-0.02,0.29-0.02,0.57-0.03,0.86c-0.03,0.44-0.06,0.87-0.11,1.31c-0.03,0.35-0.08,0.68-0.12,1.03
			c-0.02,0.21-0.05,0.42-0.08,0.62c-0.09,0.62-0.21,1.24-0.35,1.85c-0.06,0.27-0.12,0.56-0.2,0.83c-0.14,0.56-0.29,1.12-0.47,1.66
			c-0.26,0.8-0.55,1.6-0.9,2.38c-0.03,0.09-0.08,0.18-0.12,0.27c-0.21,0.48-0.46,0.98-0.73,1.46c-0.26,0.48-0.52,0.95-0.82,1.42
			c-0.27,0.45-0.58,0.9-0.92,1.36c-0.23,0.32-0.47,0.63-0.73,0.95c-0.18,0.24-0.38,0.48-0.59,0.71c-2.94,3.45-7.24,6.47-13.36,8.56
			c-0.41,0.15-0.84,0.29-1.27,0.42c-0.81,0.27-1.63,0.5-2.5,0.71c-0.43,0.12-0.85,0.21-1.28,0.3c-0.43,0.11-0.85,0.2-1.3,0.29
			c-0.59,0.14-1.2,0.24-1.83,0.35c-0.59,0.11-1.22,0.2-1.86,0.29c-1.01,0.15-2.04,0.27-3.13,0.36c-0.3,0.05-0.63,0.08-0.95,0.09
			c-2.47,0.23-4.99,0.32-7.5,0.32h-13.06c-1.69,0-3.11-0.35-4.22-1.03c-0.26-0.14-0.49-0.3-0.7-0.48c-1.19-0.92-1.92-2.26-2.17-3.97
			c-0.03-0.21-0.06-0.42-0.08-0.63c0-0.23-0.02-0.45-0.02-0.68V94.49c0-1.93,0.85-2.95,3.2-2.95H402c20.62,0,41.08,5.72,41.08,26.92
			C443.09,118.72,443.09,118.97,443.07,119.23z"/>
	</g>
	<path class="st1" d="M556.02,155.97l-46.79,0.01c-19.35,0-27.13-8.11-27.13-28.08V42.83c0-19.55,7.84-28.15,27.19-28.15h46.73
		c2.31,0,4,1.76,4,3.84c0,2.29-1.68,4.26-4,4.26l-37.96,0.01c-10.31,0-16.15,6.53-16.15,16.73l0.01,40.65
		c0,2.29,1.05,3.33,3.15,3.33l46.32-0.01c2.31,0,4,1.66,4,3.95c0,2.29-1.68,4.16-4,4.16l-46.32,0.01c-2.1,0-3.15,1.04-3.15,3.12
		l-0.01,36.72c0,9.98,5.78,16.43,16.3,16.43l37.81-0.02c2.31,0,4,1.87,4,3.95C560.01,154.1,558.33,155.97,556.02,155.97z"/>
	<path class="st1" d="M829.16,157.09h-0.26c-5.36,0-8.45-3.85-9.42-5.89l-15.28-34.99c-1.07-2.57-2.79-3.86-5.36-3.86h-64.36
		c-2.36,0-4.29,1.29-5.15,3.64l-16.52,38.52c-0.64,1.5-2.36,2.57-3.86,2.57c-2.36,0-4.29-1.29-4.29-3.86c0-0.64,0.21-1.5,0.43-1.93
		l56.01-130.45c3.46-7.49,8.94-7.29,14.76-7.29c4.08,0,8.35,2.09,10.18,7.07l51.8,120.72c0.43,0.86,1.5,3.28,1.39,5.63
		C838.86,154.99,832.27,157.09,829.16,157.09z M797.35,99.71l-28.11-66.64c-0.43-1.07-1.29-1.93-2.36-1.93
		c-1.29,0-2.15,0.64-2.57,1.71L736.2,99.5c-0.43,0.86-0.43,1.5-0.43,1.93c0,1.93,1.07,2.79,3.22,2.79h55.57
		c1.93,0,3.22-0.86,3.22-2.57C797.77,101,797.56,100.35,797.35,99.71z"/>
	<path class="st1" d="M514.69,431.81c0,5.68-10.37,10.42-16.09,10.42c-5.72,0-15.65-4.74-15.65-10.42l0-95.92
		c0-2.84-1.59-3.79-4.13-3.79h-81.8c-2.86,0-4.45,1.26-4.45,4.1l0,95.6c0,5.68-9.82,10.44-15.54,10.44
		c-5.72,0-15.43-4.75-15.43-10.44l0-206.13c0-5.68,9.6-10.43,15.31-10.43c5.72,0,15.65,4.75,15.65,10.43l0,89.69
		c0,2.84,1.27,4.42,4.13,4.42h82.12c2.54,0,4.13-1.26,4.13-3.79l0-90.32c0-5.68,9.94-10.42,15.65-10.42
		c5.72,0,16.09,4.74,16.09,10.42L514.69,431.81z"/>
	<path class="st1" d="M974.98,439.99c-52.39,0-105.7-45.38-105.7-110.41c0-62.19,55.12-112.05,105.5-112.05
		c50.12,0,106.04,49.86,106.04,112.05C1080.82,394.61,1027.12,439.99,974.98,439.99z M974.78,229.92
		c-44.58,0-74.76,48.89-74.76,100.03c0,52.72,29,97.64,75.09,97.64c45.84,0,74.42-44.93,74.42-97.65
		C1049.54,278.8,1019.36,229.92,974.78,229.92z"/>
	<path class="st1" d="M838.41,442.16c-5.54,0-12.42-2.5-16.36-7.49l-68.79-92.59c-2.49-3.34-4.97-7.35-4.97-12.02
		c0-6.68,4.66-10.02,10.26-10.02c35.32,0,49.9-14.5,49.9-41.71c0-43.92-26.64-50.78-56.34-50.78h-8.39c-6.84,0-9.83,5.08-9.83,12.42
		l0,191.26c0,6.52-7.92,11.02-15.41,11.02c-6.41,0-15.56-3.86-15.56-11.02l0-203.61c0-7.01,5.28-12.35,11.5-12.35h42.89
		c39.16,0,80.89,8.77,80.89,59.85c0,40.06-17.7,55.25-51.57,56.92l66.42,90.55c2.28,3.07,2.28,6.31,2.28,8.98
		C855.31,437.62,848.08,442.16,838.41,442.16z"/>
	<path class="st1" d="M667.17,441.92l-73.64,0.01c-30.45,0-42.7-13.01-42.7-45.05V260.42c0-31.36,12.34-45.16,42.79-45.16h73.55
		c3.64,0,6.29,2.83,6.29,6.16c0,3.67-2.65,6.83-6.29,6.83l-59.74,0.02c-16.22,0-25.42,10.48-25.42,26.83l0.02,65.22
		c0,3.67,1.66,5.34,4.97,5.34l72.9-0.02c3.64,0,6.29,2.67,6.29,6.34c0,3.67-2.65,6.67-6.29,6.67l-72.9,0.02
		c-3.31,0-4.97,1.67-4.97,5.01l-0.02,58.91c0,16.02,9.1,26.36,25.66,26.36l59.5-0.03c3.64,0,6.29,3,6.29,6.34
		C673.46,438.92,670.82,441.92,667.17,441.92z"/>
</g>
<g id="Layer_3" class="st2">
	<g id="Cape_00000088105402501473362570000009323038253670881970_" class="st3">
		<path class="st4" d="M25.74,270.73c-49.62,144.34,25.66,284.44,56.86,198.5c38-104.69,59.63-85.94,139.43-49.22
			c41.41,19.06,85.83,18.7,101.13-37.14c11.52-42.05-41.94-110.62,1.39-309.07c11.69-53.53-88.1-35.64-163.29,19.64
			C94.51,142.53,48.68,204.02,25.74,270.73z"/>
	</g>
	<g class="st3">
		<path class="st5" d="M458.05,108.41c-0.02-0.05-0.03-0.08-0.03-0.12c-3.25-13.98-13.02-20.13-25.97-22.84
			c12.61-5.47,20.53-16.92,20.53-33.63c0-0.44,0-0.87-0.03-1.31c0.02-0.14,0.02-0.26,0.02-0.39c0-12.21-4.51-20.42-11.24-25.85
			c-0.14-0.12-0.27-0.24-0.43-0.35c-9.55-7.81-22.72-9.12-30.67-9.3c-1.39-0.06-2.75-0.09-4.09-0.09h-33.52
			c-6.74,0-10.72,3.71-10.72,7.93v125.28c0,1.95,0.87,3.75,2.38,5.19c0.21,0.21,0.44,0.41,0.69,0.59c0.24,0.18,0.5,0.36,0.78,0.54
			c0.55,0.33,1.17,0.63,1.85,0.9c0.34,0.14,0.7,0.24,1.07,0.35c1.43,0.38,3.08,0.59,4.96,0.59l40.34-0.02
			c2.24,0,4.45-0.12,6.62-0.38c0.46-0.05,0.9-0.11,1.34-0.18c3.58-0.53,7.43-1.42,11.21-2.77c0.37-0.12,0.73-0.26,1.1-0.41
			c10.57-4.16,18.85-11.55,22.65-20.96c1.31-3.47,2.14-7.37,2.3-11.79v-0.23C459.15,115.14,458.77,111.58,458.05,108.41z
			 M381.72,30.11c0-0.02,0.2-0.02,0.2-0.03c0.24-5.04,2.96-7.36,7.06-7.36h12.09c29.63-0.32,35.78,15.02,36.3,28.6v0.17
			c-0.55,20.12-15.53,31.15-33.22,31.83c-0.67,0.02-1.33,0.03-1.97,0.03h-17.26c-1.69,0.09-3.13-0.67-3.2-3.25V30.11z M443.1,119.15
			v0.2c-0.02,0.29-0.02,0.57-0.03,0.86c-0.03,0.44-0.06,0.87-0.11,1.31c-0.03,0.35-0.08,0.68-0.12,1.03
			c-0.02,0.21-0.05,0.42-0.08,0.62c-0.09,0.62-0.21,1.24-0.35,1.85c-0.06,0.27-0.12,0.56-0.2,0.83c-0.14,0.56-0.29,1.12-0.47,1.66
			c-0.26,0.8-0.55,1.6-0.9,2.38c-0.03,0.09-0.08,0.18-0.12,0.27c-0.21,0.48-0.46,0.98-0.73,1.46c-0.26,0.48-0.52,0.95-0.82,1.42
			c-0.27,0.45-0.58,0.9-0.92,1.36c-0.23,0.32-0.47,0.63-0.73,0.95c-0.18,0.24-0.38,0.48-0.59,0.71c-2.94,3.45-7.24,6.47-13.36,8.56
			c-0.41,0.15-0.84,0.29-1.27,0.42c-0.81,0.27-1.63,0.5-2.5,0.71c-0.43,0.12-0.85,0.21-1.28,0.3c-0.43,0.11-0.85,0.2-1.3,0.29
			c-0.59,0.14-1.2,0.24-1.83,0.35c-0.59,0.11-1.22,0.2-1.86,0.29c-1.01,0.15-2.04,0.27-3.13,0.36c-0.3,0.05-0.63,0.08-0.95,0.09
			c-2.47,0.23-4.99,0.32-7.5,0.32H388.9c-1.69,0-3.11-0.35-4.22-1.03c-0.26-0.14-0.49-0.3-0.7-0.48c-1.19-0.92-1.92-2.26-2.17-3.97
			c-0.03-0.21-0.06-0.42-0.08-0.63c0-0.23-0.02-0.45-0.02-0.68V94.4c0-1.93,0.85-2.95,3.2-2.95h17.11
			c20.62,0,41.08,5.72,41.08,26.92C443.12,118.64,443.12,118.89,443.1,119.15z"/>
	</g>
	<path class="st6" d="M556.05,155.89l-46.79,0.01c-19.35,0-27.13-8.11-27.13-28.08V42.75c0-19.55,7.84-28.15,27.19-28.15h46.73
		c2.31,0,4,1.76,4,3.84c0,2.29-1.68,4.26-4,4.26l-37.96,0.01c-10.31,0-16.15,6.53-16.15,16.73l0.01,40.65
		c0,2.29,1.05,3.33,3.15,3.33l46.32-0.01c2.31,0,4,1.66,4,3.95c0,2.29-1.68,4.16-4,4.16l-46.32,0.01c-2.1,0-3.15,1.04-3.15,3.12
		l-0.01,36.72c0,9.98,5.78,16.43,16.3,16.43l37.81-0.02c2.31,0,4,1.87,4,3.95C560.04,154.02,558.36,155.89,556.05,155.89z"/>
	<path class="st6" d="M829.19,157h-0.26c-5.36,0-8.45-3.85-9.42-5.89l-15.28-34.99c-1.07-2.57-2.79-3.86-5.36-3.86h-64.36
		c-2.36,0-4.29,1.29-5.15,3.64l-16.52,38.52c-0.64,1.5-2.36,2.57-3.86,2.57c-2.36,0-4.29-1.29-4.29-3.86c0-0.64,0.21-1.5,0.43-1.93
		l56.01-130.45c3.46-7.49,8.94-7.29,14.76-7.29c4.08,0,8.35,2.09,10.18,7.07l51.8,120.72c0.43,0.86,1.5,3.28,1.39,5.63
		C838.9,154.91,832.31,157,829.19,157z M797.38,99.63l-28.11-66.64c-0.43-1.07-1.29-1.93-2.36-1.93c-1.29,0-2.15,0.64-2.57,1.71
		l-28.11,66.64c-0.43,0.86-0.43,1.5-0.43,1.93c0,1.93,1.07,2.79,3.22,2.79h55.57c1.93,0,3.22-0.86,3.22-2.57
		C797.81,100.92,797.59,100.27,797.38,99.63z"/>
	<path class="st6" d="M514.72,431.73c0,5.68-10.37,10.42-16.09,10.42c-5.72,0-15.65-4.74-15.65-10.42l0-95.92
		c0-2.84-1.59-3.79-4.13-3.79h-81.8c-2.86,0-4.45,1.26-4.45,4.1l0,95.6c0,5.68-9.82,10.44-15.54,10.44
		c-5.72,0-15.43-4.75-15.43-10.44l0-206.13c0-5.68,9.6-10.43,15.31-10.43c5.72,0,15.65,4.75,15.65,10.43l0,89.69
		c0,2.84,1.27,4.42,4.13,4.42h82.12c2.54,0,4.13-1.26,4.13-3.79l0-90.32c0-5.68,9.94-10.42,15.65-10.42
		c5.72,0,16.09,4.74,16.09,10.42L514.72,431.73z"/>
	<path class="st6" d="M975.02,439.91c-52.39,0-105.7-45.38-105.7-110.41c0-62.19,55.12-112.05,105.5-112.05
		c50.12,0,106.04,49.86,106.04,112.05C1080.85,394.53,1027.16,439.91,975.02,439.91z M974.81,229.84
		c-44.58,0-74.76,48.89-74.76,100.03c0,52.72,29,97.64,75.09,97.64c45.84,0,74.42-44.93,74.42-97.65
		C1049.57,278.72,1019.4,229.84,974.81,229.84z"/>
	<path class="st6" d="M838.44,442.08c-5.54,0-12.42-2.5-16.36-7.49l-68.79-92.59c-2.49-3.34-4.97-7.35-4.97-12.02
		c0-6.68,4.66-10.02,10.26-10.02c35.32,0,49.9-14.5,49.9-41.71c0-43.92-26.64-50.78-56.34-50.78h-8.39c-6.84,0-9.83,5.08-9.83,12.42
		l0,191.26c0,6.52-7.92,11.02-15.41,11.02c-6.41,0-15.56-3.86-15.56-11.02l0-203.61c0-7.01,5.28-12.35,11.5-12.35h42.89
		c39.16,0,80.89,8.77,80.89,59.85c0,40.06-17.7,55.25-51.57,56.92l66.42,90.55c2.28,3.07,2.28,6.31,2.28,8.98
		C855.34,437.54,848.11,442.08,838.44,442.08z"/>
	<path class="st6" d="M667.21,441.84l-73.64,0.01c-30.45,0-42.7-13.01-42.7-45.05V260.34c0-31.36,12.34-45.16,42.79-45.16h73.55
		c3.64,0,6.29,2.83,6.29,6.16c0,3.67-2.65,6.83-6.29,6.83l-59.74,0.02c-16.22,0-25.42,10.48-25.42,26.83l0.02,65.22
		c0,3.67,1.66,5.34,4.97,5.34l72.9-0.02c3.64,0,6.29,2.67,6.29,6.34c0,3.67-2.65,6.67-6.29,6.67l-72.9,0.02
		c-3.31,0-4.97,1.67-4.97,5.01l-0.02,58.91c0,16.02,9.1,26.36,25.66,26.36l59.5-0.03c3.64,0,6.29,3,6.29,6.34
		C673.5,438.84,670.85,441.84,667.21,441.84z"/>
</g>
<g id="Layer_4" class="st2">
	<g id="Cape_00000146496645356176190430000008345387127337310622_" class="st3">
		<path class="st7" d="M25.71,270.75C-23.91,415.1,51.37,555.2,82.57,469.26c38-104.69,59.63-85.94,139.43-49.22
			c41.41,19.06,85.83,18.7,101.13-37.14c11.52-42.05-41.94-110.62,1.39-309.07c11.69-53.53-88.1-35.64-163.29,19.64
			C94.48,142.55,48.65,204.04,25.71,270.75z"/>
	</g>
	<g class="st3">
		<path class="st8" d="M458.01,108.44c-0.02-0.05-0.03-0.08-0.03-0.12c-3.25-13.98-13.02-20.13-25.97-22.84
			c12.61-5.47,20.53-16.92,20.53-33.63c0-0.44,0-0.87-0.03-1.31c0.02-0.14,0.02-0.26,0.02-0.39c0-12.21-4.51-20.42-11.24-25.85
			c-0.14-0.12-0.27-0.24-0.43-0.35c-9.55-7.81-22.72-9.12-30.67-9.3c-1.39-0.06-2.75-0.09-4.09-0.09h-33.52
			c-6.74,0-10.72,3.71-10.72,7.93v125.28c0,1.95,0.87,3.75,2.38,5.19c0.21,0.21,0.44,0.41,0.69,0.59c0.24,0.18,0.5,0.36,0.78,0.54
			c0.55,0.33,1.17,0.63,1.85,0.9c0.34,0.14,0.7,0.24,1.07,0.35c1.43,0.38,3.08,0.59,4.96,0.59l40.34-0.02
			c2.24,0,4.45-0.12,6.62-0.38c0.46-0.05,0.9-0.11,1.34-0.18c3.58-0.53,7.43-1.42,11.21-2.77c0.37-0.12,0.73-0.26,1.1-0.41
			c10.57-4.16,18.85-11.55,22.65-20.96c1.31-3.47,2.14-7.37,2.3-11.79v-0.23C459.11,115.16,458.73,111.6,458.01,108.44z
			 M381.69,30.13c0-0.02,0.2-0.02,0.2-0.03c0.24-5.04,2.96-7.36,7.06-7.36h12.09c29.63-0.32,35.78,15.02,36.3,28.6v0.17
			c-0.55,20.12-15.53,31.15-33.22,31.83c-0.67,0.02-1.33,0.03-1.97,0.03h-17.26c-1.69,0.09-3.13-0.67-3.2-3.25V30.13z
			 M443.07,119.17v0.2c-0.02,0.29-0.02,0.57-0.03,0.86c-0.03,0.44-0.06,0.87-0.11,1.31c-0.03,0.35-0.08,0.68-0.12,1.03
			c-0.02,0.21-0.05,0.42-0.08,0.62c-0.09,0.62-0.21,1.24-0.35,1.85c-0.06,0.27-0.12,0.56-0.2,0.83c-0.14,0.56-0.29,1.12-0.47,1.66
			c-0.26,0.8-0.55,1.6-0.9,2.38c-0.03,0.09-0.08,0.18-0.12,0.27c-0.21,0.48-0.46,0.98-0.73,1.46c-0.26,0.48-0.52,0.95-0.82,1.42
			c-0.27,0.45-0.58,0.9-0.92,1.36c-0.23,0.32-0.47,0.63-0.73,0.95c-0.18,0.24-0.38,0.48-0.59,0.71c-2.94,3.45-7.24,6.47-13.36,8.56
			c-0.41,0.15-0.84,0.29-1.27,0.42c-0.81,0.27-1.63,0.5-2.5,0.71c-0.43,0.12-0.85,0.21-1.28,0.3c-0.43,0.11-0.85,0.2-1.3,0.29
			c-0.59,0.14-1.2,0.24-1.83,0.35c-0.59,0.11-1.22,0.2-1.86,0.29c-1.01,0.15-2.04,0.27-3.13,0.36c-0.3,0.05-0.63,0.08-0.95,0.09
			c-2.47,0.23-4.99,0.32-7.5,0.32h-13.06c-1.69,0-3.11-0.35-4.22-1.03c-0.26-0.14-0.49-0.3-0.7-0.48c-1.19-0.92-1.92-2.26-2.17-3.97
			c-0.03-0.21-0.06-0.42-0.08-0.63c0-0.23-0.02-0.45-0.02-0.68V94.43c0-1.93,0.85-2.95,3.2-2.95H402c20.62,0,41.08,5.72,41.08,26.92
			C443.08,118.66,443.08,118.92,443.07,119.17z"/>
	</g>
	<path class="st9" d="M556.01,155.91l-46.79,0.01c-19.35,0-27.13-8.11-27.13-28.08V42.77c0-19.55,7.84-28.15,27.19-28.15h46.73
		c2.31,0,4,1.76,4,3.84c0,2.29-1.68,4.26-4,4.26l-37.96,0.01c-10.31,0-16.15,6.53-16.15,16.73l0.01,40.65
		c0,2.29,1.05,3.33,3.15,3.33l46.32-0.01c2.31,0,4,1.66,4,3.95c0,2.29-1.68,4.16-4,4.16l-46.32,0.01c-2.1,0-3.15,1.04-3.15,3.12
		l-0.01,36.72c0,9.98,5.78,16.43,16.3,16.43l37.81-0.02c2.31,0,4,1.87,4,3.95C560.01,154.04,558.33,155.91,556.01,155.91z"/>
	<path class="st9" d="M829.16,157.03h-0.26c-5.36,0-8.45-3.85-9.42-5.89l-15.28-34.99c-1.07-2.57-2.79-3.86-5.36-3.86h-64.36
		c-2.36,0-4.29,1.29-5.15,3.64l-16.52,38.52c-0.64,1.5-2.36,2.57-3.86,2.57c-2.36,0-4.29-1.29-4.29-3.86c0-0.64,0.21-1.5,0.43-1.93
		L761.09,20.8c3.46-7.49,8.94-7.29,14.76-7.29c4.08,0,8.35,2.09,10.18,7.07l51.8,120.72c0.43,0.86,1.5,3.28,1.39,5.63
		C838.86,154.94,832.27,157.03,829.16,157.03z M797.34,99.65l-28.11-66.64c-0.43-1.07-1.29-1.93-2.36-1.93
		c-1.29,0-2.15,0.64-2.57,1.71L736.2,99.44c-0.43,0.86-0.43,1.5-0.43,1.93c0,1.93,1.07,2.79,3.22,2.79h55.57
		c1.93,0,3.22-0.86,3.22-2.57C797.77,100.94,797.56,100.3,797.34,99.65z"/>
	<path class="st9" d="M514.69,431.75c0,5.68-10.37,10.42-16.09,10.42c-5.72,0-15.65-4.74-15.65-10.42l0-95.92
		c0-2.84-1.59-3.79-4.13-3.79h-81.8c-2.86,0-4.45,1.26-4.45,4.1l0,95.6c0,5.68-9.82,10.44-15.54,10.44
		c-5.72,0-15.43-4.75-15.43-10.44l0-206.13c0-5.68,9.6-10.43,15.31-10.43c5.72,0,15.65,4.75,15.65,10.43l0,89.69
		c0,2.84,1.27,4.42,4.13,4.42h82.12c2.54,0,4.13-1.26,4.13-3.79l0-90.32c0-5.68,9.94-10.42,15.65-10.42
		c5.72,0,16.09,4.74,16.09,10.42L514.69,431.75z"/>
	<path class="st9" d="M974.98,439.93c-52.39,0-105.7-45.38-105.7-110.41c0-62.19,55.12-112.05,105.5-112.05
		c50.12,0,106.04,49.86,106.04,112.05C1080.82,394.55,1027.12,439.93,974.98,439.93z M974.78,229.86
		c-44.58,0-74.76,48.89-74.76,100.03c0,52.72,29,97.64,75.09,97.64c45.84,0,74.42-44.93,74.42-97.65
		C1049.53,278.74,1019.36,229.86,974.78,229.86z"/>
	<path class="st9" d="M838.4,442.1c-5.54,0-12.42-2.5-16.36-7.49l-68.79-92.59c-2.49-3.34-4.97-7.35-4.97-12.02
		c0-6.68,4.66-10.02,10.26-10.02c35.32,0,49.9-14.5,49.9-41.71c0-43.92-26.64-50.78-56.34-50.78h-8.39c-6.84,0-9.83,5.08-9.83,12.42
		l0,191.26c0,6.52-7.92,11.02-15.41,11.02c-6.41,0-15.56-3.86-15.56-11.02l0-203.61c0-7.01,5.28-12.35,11.5-12.35h42.89
		c39.16,0,80.89,8.77,80.89,59.85c0,40.06-17.7,55.25-51.57,56.92l66.42,90.55c2.28,3.07,2.28,6.31,2.28,8.98
		C855.31,437.56,848.08,442.1,838.4,442.1z"/>
	<path class="st9" d="M667.17,441.86l-73.64,0.01c-30.45,0-42.7-13.01-42.7-45.05V260.36c0-31.36,12.34-45.16,42.79-45.16h73.55
		c3.64,0,6.29,2.83,6.29,6.16c0,3.67-2.65,6.83-6.29,6.83l-59.74,0.02c-16.22,0-25.42,10.48-25.42,26.83l0.02,65.22
		c0,3.67,1.66,5.34,4.97,5.34l72.9-0.02c3.64,0,6.29,2.67,6.29,6.34c0,3.67-2.65,6.67-6.29,6.67l-72.9,0.02
		c-3.31,0-4.97,1.67-4.97,5.01l-0.02,58.91c0,16.02,9.1,26.36,25.66,26.36l59.5-0.03c3.64,0,6.29,3,6.29,6.34
		C673.46,438.86,670.82,441.86,667.17,441.86z"/>
</g>
</svg>
