<?xml version="1.0" encoding="utf-8"?>
<!-- Generator: Adobe Illustrator 26.0.2, SVG Export Plug-In . SVG Version: 6.00 Build 0)  -->
<svg version="1.1" xmlns="http://www.w3.org/2000/svg" xmlns:xlink="http://www.w3.org/1999/xlink" x="0px" y="0px"
	 viewBox="0 0 1091.34 170.08" style="enable-background:new 0 0 1091.34 170.08;" xml:space="preserve">
<style type="text/css">
	.st0{display:none;}
	.st1{display:inline;}
	.st2{fill-rule:evenodd;clip-rule:evenodd;fill:#C8C7FF;}
	.st3{fill:#C8C7FF;}
	.st4{fill-rule:evenodd;clip-rule:evenodd;fill:#F8F8F8;}
	.st5{fill:#F8F8F8;}
</style>
<g id="Layer_1" class="st0">
	<g id="Layer_4" class="st1">
		<g id="Cape_00000146496645356176190430000008345387127337310622_">
			<path class="st2" d="M25.71,111.22c-49.62,144.34,25.66,284.44,56.86,198.5c38-104.69,59.63-85.94,139.43-49.22
				c41.41,19.06,85.83,18.7,101.13-37.14c11.52-42.05-41.94-110.62,1.39-309.07c11.69-53.53-88.1-35.64-163.29,19.64
				C94.48-16.98,48.65,44.51,25.71,111.22z"/>
		</g>
		<g>
			<path class="st3" d="M458.01-51.09c-0.02-0.05-0.03-0.08-0.03-0.12c-3.25-13.98-13.02-20.13-25.97-22.84
				c12.61-5.47,20.53-16.92,20.53-33.63c0-0.44,0-0.87-0.03-1.31c0.02-0.14,0.02-0.26,0.02-0.39c0-12.21-4.51-20.42-11.24-25.85
				c-0.14-0.12-0.27-0.24-0.43-0.35c-9.55-7.81-22.72-9.12-30.67-9.3c-1.39-0.06-2.75-0.09-4.09-0.09h-33.52
				c-6.74,0-10.72,3.71-10.72,7.93v125.28c0,1.95,0.87,3.75,2.38,5.19c0.21,0.21,0.44,0.41,0.69,0.59c0.24,0.18,0.5,0.36,0.78,0.54
				c0.55,0.33,1.17,0.63,1.85,0.9c0.34,0.14,0.7,0.24,1.07,0.35c1.43,0.38,3.08,0.59,4.96,0.59l40.34-0.02
				c2.24,0,4.45-0.12,6.62-0.38c0.46-0.05,0.9-0.11,1.34-0.18c3.58-0.53,7.43-1.42,11.21-2.77c0.37-0.12,0.73-0.26,1.1-0.41
				c10.57-4.16,18.85-11.55,22.65-20.96c1.31-3.47,2.14-7.37,2.3-11.79v-0.23C459.11-44.37,458.73-47.93,458.01-51.09z
				 M381.69-129.4c0-0.02,0.2-0.02,0.2-0.03c0.24-5.04,2.96-7.36,7.06-7.36h12.09c29.63-0.32,35.78,15.02,36.3,28.6v0.17
				c-0.55,20.12-15.53,31.15-33.22,31.83c-0.67,0.02-1.33,0.03-1.97,0.03h-17.26c-1.69,0.09-3.13-0.67-3.2-3.25V-129.4z
				 M443.07-40.36v0.2c-0.02,0.29-0.02,0.57-0.03,0.86c-0.03,0.44-0.06,0.87-0.11,1.31c-0.03,0.35-0.08,0.68-0.12,1.03
				c-0.02,0.21-0.05,0.42-0.08,0.62c-0.09,0.62-0.21,1.24-0.35,1.85c-0.06,0.27-0.12,0.56-0.2,0.83c-0.14,0.56-0.29,1.12-0.47,1.66
				c-0.26,0.8-0.55,1.6-0.9,2.38c-0.03,0.09-0.08,0.18-0.12,0.27c-0.21,0.48-0.46,0.98-0.73,1.46c-0.26,0.48-0.52,0.95-0.82,1.42
				c-0.27,0.45-0.58,0.9-0.92,1.36c-0.23,0.32-0.47,0.63-0.73,0.95c-0.18,0.24-0.38,0.48-0.59,0.71c-2.94,3.45-7.24,6.47-13.36,8.56
				c-0.41,0.15-0.84,0.29-1.27,0.42c-0.81,0.27-1.63,0.5-2.5,0.71c-0.43,0.12-0.85,0.21-1.28,0.3c-0.43,0.11-0.85,0.2-1.3,0.29
				c-0.59,0.14-1.2,0.24-1.83,0.35c-0.59,0.11-1.22,0.2-1.86,0.29c-1.01,0.15-2.04,0.27-3.13,0.36c-0.3,0.05-0.63,0.08-0.95,0.09
				c-2.47,0.23-4.99,0.32-7.5,0.32h-13.06c-1.69,0-3.11-0.35-4.22-1.03c-0.26-0.14-0.49-0.3-0.7-0.48
				c-1.19-0.92-1.92-2.26-2.17-3.97c-0.03-0.21-0.06-0.42-0.08-0.63c0-0.23-0.02-0.45-0.02-0.68V-65.1c0-1.93,0.85-2.95,3.2-2.95
				H402c20.62,0,41.08,5.72,41.08,26.92C443.08-40.87,443.08-40.61,443.07-40.36z"/>
		</g>
		<path class="st3" d="M556.01-3.62l-46.79,0.01c-19.35,0-27.13-8.11-27.13-28.08v-85.07c0-19.55,7.84-28.15,27.19-28.15h46.73
			c2.31,0,4,1.76,4,3.84c0,2.29-1.68,4.26-4,4.26l-37.96,0.01c-10.31,0-16.15,6.53-16.15,16.73l0.01,40.65
			c0,2.29,1.05,3.33,3.15,3.33l46.32-0.01c2.31,0,4,1.66,4,3.95c0,2.29-1.68,4.16-4,4.16l-46.32,0.01c-2.1,0-3.15,1.04-3.15,3.12
			l-0.01,36.72c0,9.98,5.78,16.43,16.3,16.43l37.81-0.02c2.31,0,4,1.87,4,3.95C560.01-5.49,558.33-3.62,556.01-3.62z"/>
		<path class="st3" d="M829.16-2.5h-0.26c-5.36,0-8.45-3.85-9.42-5.89l-15.28-34.99c-1.07-2.57-2.79-3.86-5.36-3.86h-64.36
			c-2.36,0-4.29,1.29-5.15,3.64L712.81-5.08c-0.64,1.5-2.36,2.57-3.86,2.57c-2.36,0-4.29-1.29-4.29-3.86c0-0.64,0.21-1.5,0.43-1.93
			l56.01-130.45c3.46-7.49,8.94-7.29,14.76-7.29c4.08,0,8.35,2.09,10.18,7.07l51.8,120.72c0.43,0.86,1.5,3.28,1.39,5.63
			C838.86-4.6,832.27-2.5,829.16-2.5z M797.34-59.88l-28.11-66.64c-0.43-1.07-1.29-1.93-2.36-1.93c-1.29,0-2.15,0.64-2.57,1.71
			L736.2-60.09c-0.43,0.86-0.43,1.5-0.43,1.93c0,1.93,1.07,2.79,3.22,2.79h55.57c1.93,0,3.22-0.86,3.22-2.57
			C797.77-58.59,797.56-59.23,797.34-59.88z"/>
		<path class="st3" d="M514.69,272.22c0,5.68-10.37,10.42-16.09,10.42c-5.72,0-15.65-4.74-15.65-10.42l0-95.92
			c0-2.84-1.59-3.79-4.13-3.79h-81.8c-2.86,0-4.45,1.26-4.45,4.1l0,95.6c0,5.68-9.82,10.44-15.54,10.44
			c-5.72,0-15.43-4.75-15.43-10.44l0-206.13c0-5.68,9.6-10.43,15.31-10.43c5.72,0,15.65,4.75,15.65,10.43l0,89.69
			c0,2.84,1.27,4.42,4.13,4.42h82.12c2.54,0,4.13-1.26,4.13-3.79l0-90.32c0-5.68,9.94-10.42,15.65-10.42
			c5.72,0,16.09,4.74,16.09,10.42L514.69,272.22z"/>
		<path class="st3" d="M974.98,280.4c-52.39,0-105.7-45.38-105.7-110.41c0-62.19,55.12-112.05,105.5-112.05
			c50.12,0,106.04,49.86,106.04,112.05C1080.82,235.02,1027.12,280.4,974.98,280.4z M974.78,70.33
			c-44.58,0-74.76,48.89-74.76,100.03c0,52.72,29,97.64,75.09,97.64c45.84,0,74.42-44.93,74.42-97.65
			C1049.53,119.21,1019.36,70.33,974.78,70.33z"/>
		<path class="st3" d="M838.4,282.57c-5.54,0-12.42-2.5-16.36-7.49l-68.79-92.59c-2.49-3.34-4.97-7.35-4.97-12.02
			c0-6.68,4.66-10.02,10.26-10.02c35.32,0,49.9-14.5,49.9-41.71c0-43.92-26.64-50.78-56.34-50.78h-8.39
			c-6.84,0-9.83,5.08-9.83,12.42l0,191.26c0,6.52-7.92,11.02-15.41,11.02c-6.41,0-15.56-3.86-15.56-11.02l0-203.61
			c0-7.01,5.28-12.35,11.5-12.35h42.89c39.16,0,80.89,8.77,80.89,59.85c0,40.06-17.7,55.25-51.57,56.92L853.03,263
			c2.28,3.07,2.28,6.31,2.28,8.98C855.31,278.03,848.08,282.57,838.4,282.57z"/>
		<path class="st3" d="M667.17,282.33l-73.64,0.01c-30.45,0-42.7-13.01-42.7-45.05V100.83c0-31.36,12.34-45.16,42.79-45.16h73.55
			c3.64,0,6.29,2.83,6.29,6.16c0,3.67-2.65,6.83-6.29,6.83l-59.74,0.02c-16.22,0-25.42,10.48-25.42,26.83l0.02,65.22
			c0,3.67,1.66,5.34,4.97,5.34l72.9-0.02c3.64,0,6.29,2.67,6.29,6.34c0,3.67-2.65,6.67-6.29,6.67l-72.9,0.02
			c-3.31,0-4.97,1.67-4.97,5.01l-0.02,58.91c0,16.02,9.1,26.36,25.66,26.36l59.5-0.03c3.64,0,6.29,3,6.29,6.34
			C673.46,279.33,670.82,282.33,667.17,282.33z"/>
	</g>
	<g id="Layer_2" class="st1">
		<g id="Cape_00000008866652002712689960000010903603846889846656_">
			<path class="st4" d="M25.71,111.28c-49.62,144.34,25.66,284.44,56.86,198.5c38-104.69,59.63-85.94,139.43-49.22
				c41.41,19.06,85.83,18.7,101.13-37.14c11.52-42.05-41.94-110.62,1.39-309.07c11.69-53.53-88.1-35.64-163.29,19.64
				C94.48-16.92,48.65,44.57,25.71,111.28z"/>
		</g>
		<g>
			<path class="st5" d="M458.02-51.04c-0.02-0.05-0.03-0.08-0.03-0.12c-3.25-13.98-13.02-20.13-25.97-22.84
				c12.61-5.47,20.53-16.92,20.53-33.63c0-0.44,0-0.87-0.03-1.31c0.02-0.14,0.02-0.26,0.02-0.39c0-12.21-4.51-20.42-11.24-25.85
				c-0.14-0.12-0.27-0.24-0.43-0.35c-9.55-7.81-22.72-9.12-30.67-9.3c-1.39-0.06-2.75-0.09-4.09-0.09h-33.52
				c-6.74,0-10.72,3.71-10.72,7.93v125.28c0,1.95,0.87,3.75,2.38,5.19c0.21,0.21,0.44,0.41,0.69,0.59c0.24,0.18,0.5,0.36,0.78,0.54
				c0.55,0.33,1.17,0.63,1.85,0.9c0.34,0.14,0.7,0.24,1.07,0.35c1.43,0.38,3.08,0.59,4.96,0.59l40.34-0.02
				c2.24,0,4.45-0.12,6.62-0.38c0.46-0.05,0.9-0.11,1.34-0.18c3.58-0.53,7.43-1.42,11.21-2.77c0.37-0.12,0.73-0.26,1.1-0.41
				c10.57-4.16,18.85-11.55,22.65-20.96c1.31-3.47,2.14-7.37,2.3-11.79v-0.23C459.11-44.31,458.73-47.87,458.02-51.04z
				 M381.69-129.34c0-0.02,0.2-0.02,0.2-0.03c0.24-5.04,2.96-7.36,7.06-7.36h12.09c29.63-0.32,35.78,15.02,36.3,28.6v0.17
				c-0.55,20.12-15.53,31.15-33.22,31.83c-0.67,0.02-1.33,0.03-1.97,0.03h-17.26c-1.69,0.09-3.13-0.67-3.2-3.25V-129.34z
				 M443.07-40.3v0.2c-0.02,0.29-0.02,0.57-0.03,0.86c-0.03,0.44-0.06,0.87-0.11,1.31c-0.03,0.35-0.08,0.68-0.12,1.03
				c-0.02,0.21-0.05,0.42-0.08,0.62c-0.09,0.62-0.21,1.24-0.35,1.85c-0.06,0.27-0.12,0.56-0.2,0.83c-0.14,0.56-0.29,1.12-0.47,1.66
				c-0.26,0.8-0.55,1.6-0.9,2.38c-0.03,0.09-0.08,0.18-0.12,0.27c-0.21,0.48-0.46,0.98-0.73,1.46c-0.26,0.48-0.52,0.95-0.82,1.42
				c-0.27,0.45-0.58,0.9-0.92,1.36c-0.23,0.32-0.47,0.63-0.73,0.95c-0.18,0.24-0.38,0.48-0.59,0.71c-2.94,3.45-7.24,6.47-13.36,8.56
				c-0.41,0.15-0.84,0.29-1.27,0.42c-0.81,0.27-1.63,0.5-2.5,0.71c-0.43,0.12-0.85,0.21-1.28,0.3c-0.43,0.11-0.85,0.2-1.3,0.29
				c-0.59,0.14-1.2,0.24-1.83,0.35c-0.59,0.11-1.22,0.2-1.86,0.29c-1.01,0.15-2.04,0.27-3.13,0.36c-0.3,0.05-0.63,0.08-0.95,0.09
				c-2.47,0.23-4.99,0.32-7.5,0.32h-13.06c-1.69,0-3.11-0.35-4.22-1.03c-0.26-0.14-0.49-0.3-0.7-0.48
				c-1.19-0.92-1.92-2.26-2.17-3.97c-0.03-0.21-0.06-0.42-0.08-0.63c0-0.23-0.02-0.45-0.02-0.68v-46.55c0-1.93,0.85-2.95,3.2-2.95
				H402c20.62,0,41.08,5.72,41.08,26.92C443.09-40.81,443.09-40.56,443.07-40.3z"/>
		</g>
		<path class="st5" d="M556.02-3.56l-46.79,0.01c-19.35,0-27.13-8.11-27.13-28.08v-85.07c0-19.55,7.84-28.15,27.19-28.15h46.73
			c2.31,0,4,1.76,4,3.84c0,2.29-1.68,4.26-4,4.26l-37.96,0.01c-10.31,0-16.15,6.53-16.15,16.73l0.01,40.65
			c0,2.29,1.05,3.33,3.15,3.33l46.32-0.01c2.31,0,4,1.66,4,3.95c0,2.29-1.68,4.16-4,4.16l-46.32,0.01c-2.1,0-3.15,1.04-3.15,3.12
			l-0.01,36.72c0,9.98,5.78,16.43,16.3,16.43l37.81-0.02c2.31,0,4,1.87,4,3.95C560.01-5.43,558.33-3.56,556.02-3.56z"/>
		<path class="st5" d="M829.16-2.45h-0.26c-5.36,0-8.45-3.85-9.42-5.89l-15.28-34.99c-1.07-2.57-2.79-3.86-5.36-3.86h-64.36
			c-2.36,0-4.29,1.29-5.15,3.64L712.81-5.02c-0.64,1.5-2.36,2.57-3.86,2.57c-2.36,0-4.29-1.29-4.29-3.86c0-0.64,0.21-1.5,0.43-1.93
			l56.01-130.45c3.46-7.49,8.94-7.29,14.76-7.29c4.08,0,8.35,2.09,10.18,7.07l51.8,120.72c0.43,0.86,1.5,3.28,1.39,5.63
			C838.86-4.54,832.27-2.45,829.16-2.45z M797.35-59.82l-28.11-66.64c-0.43-1.07-1.29-1.93-2.36-1.93c-1.29,0-2.15,0.64-2.57,1.71
			L736.2-60.03c-0.43,0.86-0.43,1.5-0.43,1.93c0,1.93,1.07,2.79,3.22,2.79h55.57c1.93,0,3.22-0.86,3.22-2.57
			C797.77-58.53,797.56-59.18,797.35-59.82z"/>
		<path class="st5" d="M514.69,272.28c0,5.68-10.37,10.42-16.09,10.42c-5.72,0-15.65-4.74-15.65-10.42l0-95.92
			c0-2.84-1.59-3.79-4.13-3.79h-81.8c-2.86,0-4.45,1.26-4.45,4.1l0,95.6c0,5.68-9.82,10.44-15.54,10.44
			c-5.72,0-15.43-4.75-15.43-10.44l0-206.13c0-5.68,9.6-10.43,15.31-10.43c5.72,0,15.65,4.75,15.65,10.43l0,89.69
			c0,2.84,1.27,4.42,4.13,4.42h82.12c2.54,0,4.13-1.26,4.13-3.79l0-90.32c0-5.68,9.94-10.42,15.65-10.42
			c5.72,0,16.09,4.74,16.09,10.42L514.69,272.28z"/>
		<path class="st5" d="M974.98,280.46c-52.39,0-105.7-45.38-105.7-110.41c0-62.19,55.12-112.05,105.5-112.05
			c50.12,0,106.04,49.86,106.04,112.05C1080.82,235.08,1027.12,280.46,974.98,280.46z M974.78,70.39
			c-44.58,0-74.76,48.89-74.76,100.03c0,52.72,29,97.64,75.09,97.64c45.84,0,74.42-44.93,74.42-97.65
			C1049.54,119.27,1019.36,70.39,974.78,70.39z"/>
		<path class="st5" d="M838.41,282.63c-5.54,0-12.42-2.5-16.36-7.49l-68.79-92.59c-2.49-3.34-4.97-7.35-4.97-12.02
			c0-6.68,4.66-10.02,10.26-10.02c35.32,0,49.9-14.5,49.9-41.71c0-43.92-26.64-50.78-56.34-50.78h-8.39
			c-6.84,0-9.83,5.08-9.83,12.42l0,191.26c0,6.52-7.92,11.02-15.41,11.02c-6.41,0-15.56-3.86-15.56-11.02l0-203.61
			c0-7.01,5.28-12.35,11.5-12.35h42.89c39.16,0,80.89,8.77,80.89,59.85c0,40.06-17.7,55.25-51.57,56.92l66.42,90.55
			c2.28,3.07,2.28,6.31,2.28,8.98C855.31,278.09,848.08,282.63,838.41,282.63z"/>
		<path class="st5" d="M667.17,282.39l-73.64,0.01c-30.45,0-42.7-13.01-42.7-45.05V100.89c0-31.36,12.34-45.16,42.79-45.16h73.55
			c3.64,0,6.29,2.83,6.29,6.16c0,3.67-2.65,6.83-6.29,6.83l-59.74,0.02c-16.22,0-25.42,10.48-25.42,26.83l0.02,65.22
			c0,3.67,1.66,5.34,4.97,5.34l72.9-0.02c3.64,0,6.29,2.67,6.29,6.34c0,3.67-2.65,6.67-6.29,6.67l-72.9,0.02
			c-3.31,0-4.97,1.67-4.97,5.01l-0.02,58.91c0,16.02,9.1,26.36,25.66,26.36l59.5-0.03c3.64,0,6.29,3,6.29,6.34
			C673.46,279.39,670.82,282.39,667.17,282.39z"/>
	</g>
</g>
<g id="Layer_5">
	<path class="st5" d="M710.24,148.54c0,3.5-6.39,6.42-9.92,6.42c-3.52,0-9.65-2.92-9.65-6.42l0-59.1c0-1.75-0.98-2.33-2.55-2.33
		h-50.43c-1.76,0-2.74,0.78-2.74,2.53l0,58.91c0,3.5-6.05,6.43-9.58,6.43c-3.52,0-9.51-2.93-9.51-6.43l0-127.01
		c0-3.5,5.92-6.43,9.44-6.43c3.52,0,9.65,2.92,9.65,6.43l0,55.26c0,1.75,0.78,2.72,2.55,2.72h50.62c1.57,0,2.55-0.78,2.55-2.33
		l0-55.65c0-3.5,6.13-6.42,9.65-6.42c3.52,0,9.92,2.92,9.92,6.42L710.24,148.54z"/>
	<path class="st5" d="M991.34,154.87c-32.3,0-65.16-28.49-65.16-69.32c0-39.04,33.98-70.35,65.04-70.35
		c30.9,0,65.37,31.31,65.37,70.35C1056.59,126.38,1023.49,154.87,991.34,154.87z M991.22,22.99c-27.48,0-46.08,30.69-46.08,62.8
		c0,33.1,17.88,61.3,46.29,61.3c28.26,0,45.87-28.21,45.87-61.31C1037.3,53.68,1018.7,22.99,991.22,22.99z"/>
	<path class="st5" d="M905.59,154.91c-3.42,0-7.66-1.54-10.09-4.62l-42.4-57.05c-1.53-2.06-3.07-4.53-3.07-7.41
		c0-4.11,2.87-6.17,6.32-6.17c21.77,0,30.76-8.93,30.76-25.7c0-27.06-16.42-31.29-34.73-31.29h-5.17c-4.21,0-6.06,3.13-6.06,7.65
		l0,117.85c0,4.01-4.88,6.79-9.5,6.79c-3.95,0-9.59-2.38-9.59-6.79l0-125.46c0-4.32,3.26-7.61,7.09-7.61h26.44
		c24.14,0,49.86,5.4,49.86,36.88c0,24.68-10.91,34.04-31.79,35.07l40.94,55.79c1.4,1.89,1.4,3.89,1.4,5.53
		C916.01,152.12,911.55,154.91,905.59,154.91z"/>
	<path class="st5" d="M802.3,154.87l-45.39,0.01c-18.77,0-26.32-8.02-26.32-27.75V43.03c0-19.33,7.61-27.83,26.38-27.83h45.34
		c2.24,0,3.88,1.74,3.88,3.8c0,2.26-1.63,4.21-3.88,4.21l-36.83,0.01c-10,0-15.67,6.46-15.67,16.53l0.01,40.18
		c0,2.26,1.02,3.29,3.06,3.29l44.94-0.01c2.24,0,3.88,1.64,3.88,3.91c0,2.26-1.63,4.11-3.88,4.11l-44.94,0.01
		c-2.04,0-3.06,1.03-3.06,3.08l-0.01,36.3c0,9.87,5.61,16.24,15.82,16.24l36.68-0.02c2.24,0,3.88,1.85,3.88,3.91
		C806.17,153.02,804.54,154.87,802.3,154.87z"/>
	<g>
		<path class="st5" d="M129.8,107.96c-0.02-0.04-0.03-0.07-0.03-0.12c-3.21-13.81-12.87-19.89-25.67-22.57
			c12.47-5.41,20.29-16.72,20.29-33.22c0-0.43,0-0.86-0.03-1.3c0.02-0.13,0.02-0.25,0.02-0.39c0-12.07-4.46-20.17-11.11-25.54
			c-0.14-0.12-0.27-0.24-0.42-0.34c-9.44-7.72-22.46-9.01-30.32-9.19c-1.37-0.06-2.71-0.09-4.04-0.09H45.35
			c-6.66,0-10.6,3.66-10.6,7.84v123.77c0,1.92,0.86,3.71,2.35,5.12c0.21,0.21,0.44,0.4,0.68,0.58c0.24,0.18,0.5,0.36,0.77,0.54
			c0.54,0.33,1.16,0.63,1.82,0.89c0.33,0.13,0.69,0.24,1.06,0.34c1.42,0.37,3.05,0.58,4.9,0.58l39.87-0.01
			c2.22,0,4.4-0.12,6.54-0.37c0.45-0.04,0.89-0.1,1.33-0.18c3.54-0.52,7.34-1.4,11.08-2.74c0.36-0.12,0.72-0.25,1.09-0.4
			c10.45-4.11,18.63-11.41,22.39-20.71c1.3-3.43,2.11-7.29,2.28-11.65v-0.22C130.88,114.6,130.51,111.09,129.8,107.96z M54.35,30.59
			c0-0.01,0.2-0.01,0.2-0.03c0.24-4.98,2.92-7.27,6.98-7.27h11.96c29.29-0.31,35.37,14.84,35.88,28.26v0.16
			c-0.54,19.87-15.35,30.77-32.83,31.44c-0.66,0.01-1.31,0.03-1.94,0.03H57.51c-1.67,0.09-3.09-0.66-3.17-3.21V30.59z
			 M115.03,118.57v0.19c-0.01,0.28-0.01,0.57-0.03,0.85c-0.03,0.43-0.06,0.86-0.11,1.3c-0.03,0.34-0.08,0.67-0.12,1.01
			c-0.02,0.21-0.05,0.42-0.08,0.61c-0.09,0.61-0.21,1.22-0.35,1.83c-0.06,0.27-0.12,0.55-0.2,0.82c-0.14,0.55-0.29,1.1-0.47,1.64
			c-0.26,0.79-0.54,1.58-0.89,2.35c-0.03,0.09-0.08,0.18-0.12,0.27c-0.21,0.48-0.45,0.97-0.72,1.45c-0.26,0.48-0.51,0.94-0.81,1.4
			c-0.27,0.45-0.57,0.89-0.9,1.34c-0.23,0.31-0.47,0.63-0.72,0.94c-0.18,0.24-0.38,0.48-0.59,0.7c-2.91,3.41-7.16,6.39-13.21,8.46
			c-0.41,0.15-0.83,0.28-1.25,0.42c-0.8,0.27-1.61,0.49-2.47,0.7c-0.42,0.12-0.84,0.21-1.27,0.3c-0.42,0.1-0.84,0.19-1.28,0.28
			c-0.59,0.13-1.19,0.24-1.81,0.34c-0.59,0.1-1.21,0.19-1.84,0.28c-0.99,0.15-2.02,0.27-3.09,0.36c-0.3,0.04-0.62,0.07-0.93,0.09
			c-2.44,0.22-4.93,0.31-7.42,0.31H61.45c-1.67,0-3.08-0.34-4.18-1.01c-0.26-0.13-0.48-0.3-0.69-0.48c-1.18-0.91-1.9-2.23-2.14-3.92
			c-0.03-0.21-0.06-0.42-0.08-0.63c0-0.22-0.01-0.45-0.01-0.67V94.12c0-1.91,0.84-2.91,3.17-2.91h16.91
			c20.38,0,40.61,5.65,40.61,26.6C115.04,118.06,115.04,118.31,115.03,118.57z"/>
	</g>
	<path class="st5" d="M223.12,154.84l-45.39,0.01c-18.77,0-26.32-8.01-26.32-27.74V43.05c0-19.32,7.61-27.82,26.38-27.82h45.34
		c2.24,0,3.88,1.74,3.88,3.8c0,2.26-1.63,4.21-3.88,4.21l-36.83,0.01c-10,0-15.67,6.46-15.67,16.53l0.01,40.17
		c0,2.26,1.02,3.29,3.06,3.29l44.94-0.01c2.24,0,3.88,1.64,3.88,3.9c0,2.26-1.63,4.11-3.88,4.11l-44.94,0.01
		c-2.04,0-3.06,1.03-3.06,3.08l-0.01,36.28c0,9.86,5.61,16.23,15.82,16.23l36.68-0.02c2.24,0,3.88,1.85,3.88,3.9
		C227,152.99,225.37,154.84,223.12,154.84z"/>
	<path class="st5" d="M474.77,154.87h-0.25c-5.22,0-8.22-3.74-9.17-5.73l-14.87-34.05c-1.04-2.5-2.72-3.75-5.22-3.75h-62.67
		c-2.3,0-4.18,1.25-5.01,3.54l-16.09,37.48c-0.63,1.46-2.3,2.5-3.76,2.5c-2.3,0-4.18-1.25-4.18-3.75c0-0.63,0.21-1.46,0.42-1.88
		L408.5,22.3c3.37-7.29,8.7-7.09,14.37-7.09c3.97,0,8.13,2.04,9.92,6.88l50.43,117.48c0.42,0.83,1.46,3.19,1.35,5.48
		C484.21,152.84,477.8,154.87,474.77,154.87z M443.79,99.04l-27.36-64.85c-0.42-1.04-1.25-1.88-2.3-1.88
		c-1.25,0-2.09,0.63-2.51,1.67l-27.36,64.85c-0.42,0.83-0.42,1.46-0.42,1.88c0,1.88,1.04,2.71,3.13,2.71h54.1
		c1.88,0,3.13-0.83,3.13-2.5C444.21,100.29,444,99.66,443.79,99.04z"/>
</g>
</svg>
