<?xml version="1.0" encoding="utf-8"?>
<!-- Generator: Adobe Illustrator 26.0.2, SVG Export Plug-In . SVG Version: 6.00 Build 0)  -->
<svg version="1.1" id="Layer_1" xmlns="http://www.w3.org/2000/svg" xmlns:xlink="http://www.w3.org/1999/xlink" x="0px" y="0px"
	 viewBox="0 0 150.8 74" style="enable-background:new 0 0 150.8 74;" xml:space="preserve">
<style type="text/css">
	.st0{fill:#273691;}
	.st1{fill:url(#SVGID_00000112614149273425402570000002641833862607685007_);}
</style>
<g>
	<path class="st0" d="M145.6,1.1h-37.8c-0.2,0-0.4,0-0.6,0c-5.8,0.3-10.4,5.1-10.4,11v53.7c0,4,3.2,7.2,7.2,7.2h4.4
		c4,0,7.2-3.2,7.2-7.2V47.1l0,0v-15V17.4c0-0.7,0.6-1.3,1.3-1.3h28.7c2.7,0,4.9-2.2,4.9-4.9l0-5.1C150.5,3.4,148.3,1.1,145.6,1.1z"
		/>
	<g>
		<path class="st0" d="M19.1,8.2v57.5c0,4-3.2,7.2-7.2,7.2H7.5c-4,0-7.2-3.2-7.2-7.2V8.2c0-4,3.2-7.2,7.2-7.2h4.4
			C15.9,1.1,19.1,4.3,19.1,8.2z"/>
	</g>
	<g>
		<g>
			
				<linearGradient id="SVGID_00000106148212556320843840000000292052860492209035_" gradientUnits="userSpaceOnUse" x1="24.8186" y1="37.9156" x2="150.4515" y2="37.9156" gradientTransform="matrix(1 0 0 -1 0 74.9077)">
				<stop  offset="0" style="stop-color:#00B5D1"/>
				<stop  offset="0.6675" style="stop-color:#005FA3"/>
				<stop  offset="1" style="stop-color:#273691"/>
			</linearGradient>
			<path id="SVGID_18_" style="fill:url(#SVGID_00000106148212556320843840000000292052860492209035_);" d="M143.6,28.1
				c-2.5-0.2-5-0.2-7.5-0.1c-5,0.1-10,0.7-14.9,1.8c-10.1,2.3-18.7,7-27,13.1c-3.8,2.8-7.6,5.8-11.7,8.2c-7.2,4.3-15.8,7.2-23.9,4.9
				C50.9,53.9,44.9,46.9,44,39c-0.9-7.9,3.3-16.1,10.2-20s16.1-3.2,22.4,1.7c1.5,1.2,3.1,2.6,5,2.6c1.8-0.1,3.2-1.5,4.3-2.8
				c2.2-2.4,4.5-5.4,3.6-8.6c-0.5-2-2.3-3.5-4-4.7C76.1,0.8,64-1.3,53,1.5C44.4,3.8,36.7,9,31.3,16c-5.6,7.2-7.4,17.2-6.1,26.2
				c0.7,4.6,2.2,9.1,4.5,13.1C35.3,65.1,45.8,72,57,73.4c9.4,1.2,19-1.4,27.5-5.7c9.9-5,18.2-12.4,26.8-19.4
				c6.8-5.5,13.8-10.7,21.8-14.2c5.6-2.4,11.4-4.2,17.3-5.4C145.6,28.3,145.6,28.3,143.6,28.1z"/>
		</g>
	</g>
</g>
</svg>
