<svg id="Layers" xmlns="http://www.w3.org/2000/svg" viewBox="0 0 1459.84 1318.11"><defs><style>.cls-1{fill:#fff;}.cls-2{fill:none;stroke:#c8c7ff;stroke-linecap:round;stroke-miterlimit:10;stroke-width:6px;}.cls-3{font-size:60px;font-family:NewsGothicBT-Bold, NewsGoth BT;font-weight:700;}.cls-4{letter-spacing:-0.06em;}.cls-5{letter-spacing:-0.06em;}.cls-6{font-size:76px;letter-spacing:-0.01em;}.cls-10,.cls-6{font-family:Roboto-Regular, Roboto;}.cls-7{letter-spacing:-0.03em;}.cls-8{letter-spacing:-0.01em;}.cls-9{letter-spacing:-0.03em;}.cls-10{font-size:50px;}</style></defs><g id="Base"><rect class="cls-1" x="184.26" width="1275.58" height="184.25"/><rect class="cls-1" x="-474.8" y="659.06" width="1133.86" height="184.25" transform="translate(-659.06 843.31) rotate(-90)"/><rect class="cls-1" x="255.12" y="113.39" width="1133.86" height="1275.59" transform="translate(70.87 1573.23) rotate(-90)"/></g><g id="Lines"><line class="cls-2" x1="201.44" y1="181.39" x2="1442.63" y2="181.39"/><line class="cls-2" x1="181.42" y1="201.43" x2="181.42" y2="1300.91"/><line class="cls-2" x1="201.38" y1="751.16" x2="1442.69" y2="751.16"/><line class="cls-2" x1="822.05" y1="201.42" x2="822.05" y2="1300.92"/></g><g id="Text"><text class="cls-3" transform="translate(395.08 141.46) scale(0.93 1)">URGENT</text><text class="cls-3" transform="translate(952.53 142.18) scale(0.93 1)"><tspan xml:space="preserve">NOT  URGENT</tspan></text><text class="cls-3" transform="translate(144.09 638.14) rotate(-90) scale(0.93 1)">IMPORT<tspan class="cls-4" x="222.8" y="0">T</tspan><tspan x="252.57" y="0">ANT</tspan></text><text class="cls-3" transform="matrix(0, -0.93, 1, 0, 144.09, 1275.47)"><tspan xml:space="preserve">NOT  IMPORT</tspan><tspan class="cls-5" x="376.26" y="0">T</tspan><tspan x="406.03" y="0">ANT</tspan></text><text class="cls-6" transform="translate(289.07 490.99)">Emergencies</text><text class="cls-6" transform="translate(882.28 490.99)">Personal Goals</text><text class="cls-6" transform="translate(305.9 1056.08)">Dist<tspan class="cls-7" x="129.25" y="0">r</tspan><tspan class="cls-8" x="152.73" y="0">actions</tspan></text><text class="cls-6" transform="translate(903.95 1056.08)">Time <tspan class="cls-9" x="185.68" y="0">W</tspan><tspan x="251.12" y="0">asters</tspan></text><text class="cls-10" transform="translate(754.72 723.45)">1</text><text class="cls-10" transform="translate(861.26 812.45)">4</text><text class="cls-10" transform="translate(754.72 812.45)">3</text><text class="cls-10" transform="translate(861.26 723.45)">2</text></g></svg>